<svg viewBox="237 249 26 52" xmlns="http://www.w3.org/2000/svg">
  <defs></defs>
  <path style="fill: rgba(216, 216, 216, 0); stroke-width: 2px;" d="M 250 250 C 250 255 250 260 250 265 C 250 275 250.029 279.966 254.529 279.966 C 261.529 279.966 261.495 269.931 254.495 269.931 C 249.995 269.931 250.007 280.043 245.507 280.043 C 238.507 280.043 238.496 270 245.496 270 C 249.996 270 250 275.424 250 285 C 250 290 250 295 250 300"></path>
  <path d="M 249 250 C 249 250 249 251.25 249 251.875 C 249 252.5 249 253.125 249 253.75 C 249 255 249 256.25 249 257.5 C 249 260 249 262.5 249 265 C 249 270.001 249.008 273.857 249.602 276.456 C 249.91 277.8 250.459 279.001 251.224 279.749 C 252.006 280.514 253.232 280.966 254.529 280.966 C 256.495 280.966 258.198 280.154 259.195 279.078 C 260.203 277.989 260.767 276.364 260.762 274.945 C 260.757 273.526 260.184 271.904 259.169 270.817 C 258.166 269.742 256.46 268.931 254.495 268.931 C 253.07 268.931 251.808 269.853 251.021 270.916 C 250.255 271.951 249.648 273.317 249.087 274.581 C 248.526 275.845 248.011 277.007 247.373 277.868 C 246.756 278.701 246.332 279.043 245.507 279.043 C 243.973 279.043 243.051 278.6 242.3 277.793 C 241.561 276.998 241.253 276.111 241.251 275.02 C 241.25 273.93 241.556 273.044 242.293 272.25 C 243.042 271.443 243.962 271 245.496 271 C 246.435 271 246.887 271.18 247.378 271.69 C 247.889 272.222 248.198 272.941 248.459 274.125 C 248.999 276.572 249 280.212 249 285 C 249 290 249 295 249 300 L 251 300 C 251 295 251 290 251 285 C 251 280.212 250.999 276.352 250.412 273.693 C 250.11 272.324 249.574 271.088 248.819 270.304 C 248.043 269.498 246.807 269 245.496 269 C 243.53 269 241.826 269.813 240.827 270.889 C 239.817 271.978 239.25 273.603 239.251 275.023 C 239.253 276.442 239.823 278.067 240.836 279.155 C 241.837 280.231 243.541 281.043 245.507 281.043 C 246.932 281.043 248.194 280.121 248.981 279.058 C 249.747 278.023 250.354 276.657 250.915 275.393 C 251.476 274.129 251.991 272.967 252.629 272.106 C 253.246 271.273 253.67 270.931 254.495 270.931 C 256.03 270.931 256.953 271.374 257.707 272.181 C 258.448 272.976 258.758 273.862 258.762 274.952 C 258.766 276.041 258.463 276.925 257.728 277.718 C 256.981 278.524 256.063 278.966 254.529 278.966 C 253.576 278.966 253.111 278.797 252.622 278.319 C 252.115 277.823 251.814 277.158 251.552 276.01 C 251.007 273.626 251 269.999 251 265 C 251 262.5 251 260 251 257.5 C 251 256.25 251 255 251 253.75 C 251 253.125 251 252.5 251 251.875 C 251 251.25 251 250 251 250 Z" style=""></path>
</svg>