<svg viewBox="237 249 26 52" xmlns="http://www.w3.org/2000/svg">
  <defs></defs>
  <path style="fill: rgba(216, 216, 216, 0); stroke-width: 2px;" d="M 250 250 C 250 255 250 260 250 265 C 250 275 251.5 280 256 280 C 263 280 263 270 256 270 C 251.5 270 250 275 250 285 C 250 290 250 295 250 300"></path>
  <path d="M 249 250 C 249 250 249 251.25 249 251.875 C 249 252.5 249 253.125 249 253.75 C 249 255 249 256.25 249 257.5 C 249 260 249 262.5 249 265 C 249 270.05 249.394 273.981 250.376 276.601 C 250.883 277.952 251.642 279.118 252.536 279.84 C 253.445 280.575 254.717 281 256 281 C 257.965 281 259.668 280.191 260.669 279.12 C 261.681 278.035 262.25 276.415 262.25 275 C 262.25 273.585 261.681 271.965 260.669 270.88 C 259.668 269.809 257.965 269 256 269 C 254.717 269 253.445 269.425 252.536 270.16 C 251.642 270.882 250.883 272.048 250.376 273.399 C 249.394 276.019 249 279.95 249 285 C 249 290 249 295 249 300 L 251 300 C 251 295 251 290 251 285 C 251 280.05 251.356 276.481 252.249 274.101 C 252.68 272.952 253.14 272.243 253.793 271.715 C 254.43 271.2 255.033 271 256 271 C 257.535 271 258.457 271.441 259.206 272.245 C 259.944 273.035 260.25 273.915 260.25 275 C 260.25 276.085 259.944 276.965 259.206 277.755 C 258.457 278.559 257.535 279 256 279 C 255.033 279 254.43 278.8 253.793 278.285 C 253.14 277.757 252.68 277.048 252.249 275.899 C 251.356 273.519 251 269.95 251 265 C 251 262.5 251 260 251 257.5 C 251 256.25 251 255 251 253.75 C 251 253.125 251 252.5 251 251.875 C 251 251.25 251 250 251 250 Z" style=""></path>
</svg>